<?xml version="1.0" encoding="UTF-8" standalone="no"?> <svg xmlns="http://www.w3.org/2000/svg" viewBox="0 0 64 64"><g id="Layer_8" data-name="Layer 8"><path d="M38.43,26H25.57a1,1,0,0,0,0,2H38.43a1,1,0,1,0,0-2Z"/><path d="M38.43,32.82H25.57a1,1,0,0,0,0,2H38.43a1,1,0,0,0,0-2Z"/><path d="M38.43,39.64H25.57a1,1,0,0,0,0,2H38.43a1,1,0,0,0,0-2Z"/><path d="M38.43,46.46H25.57a1,1,0,0,0,0,2H38.43a1,1,0,0,0,0-2Z"/><path d="M38.43,53.29H25.57a1,1,0,0,0,0,2H38.43a1,1,0,0,0,0-2Z"/><path d="M58.68,34.14H44.43V18.21a1,1,0,0,0-1-1H40.09l-3.67-8.6A1,1,0,0,0,35.5,8H33V4a1,1,0,0,0-2,0V8H28.5a1,1,0,0,0-.92.61l-3.67,8.6H20.57a1,1,0,0,0-1,1V26H5.32a1,1,0,0,0-1,1V60a1,1,0,0,0,1,1H58.68a1,1,0,0,0,1-1V35.14A1,1,0,0,0,58.68,34.14ZM29.17,10h5.66l3.08,7.21H26.09ZM6.32,28H19.57V59H6.32ZM21.57,59V19.21H42.43V59Zm36.11,0H44.43V36.14H57.68Z"/><path d="M15.53,30.71H10.24a1,1,0,0,0-1,1V37a1,1,0,0,0,1,1h5.29a1,1,0,0,0,1-1V31.71A1,1,0,0,0,15.53,30.71Zm-1,5.29H11.24V32.71h3.29Z"/><path d="M15.53,39.64H10.24a1,1,0,0,0-1,1v5.29a1,1,0,0,0,1,1h5.29a1,1,0,0,0,1-1V40.64A1,1,0,0,0,15.53,39.64Zm-1,5.29H11.24V41.64h3.29Z"/><path d="M15.53,48.57H10.24a1,1,0,0,0-1,1v5.29a1,1,0,0,0,1,1h5.29a1,1,0,0,0,1-1V49.57A1,1,0,0,0,15.53,48.57Zm-1,5.29H11.24V50.57h3.29Z"/><path d="M48.24,46.93h5.29a1,1,0,0,0,1-1V40.64a1,1,0,0,0-1-1H48.24a1,1,0,0,0-1,1v5.29A1,1,0,0,0,48.24,46.93Zm1-5.29h3.29v3.29H49.24Z"/><path d="M48.24,55.86h5.29a1,1,0,0,0,1-1V49.57a1,1,0,0,0-1-1H48.24a1,1,0,0,0-1,1v5.29A1,1,0,0,0,48.24,55.86Zm1-5.29h3.29v3.29H49.24Z"/></g></svg>