<?xml version="1.0" encoding="UTF-8" standalone="no"?> <svg id="Layer_1" data-name="Layer 1" xmlns="http://www.w3.org/2000/svg" viewBox="0 0 128 128"><defs><style>.clsx-1{fill:#ffffff;}.cls-2{fill:#FFFFFF;}</style></defs><title>n</title><path class="clsx-1" d="M123.29344,56.90632,99.74917,33.35065V10.11784a3.98442,3.98442,0,0,0-4.88979-3.8802L31.32988,21.06121a3.98446,3.98446,0,0,0-3.079,3.8802V58.237H7.079a3.35507,3.35507,0,0,0-3.35511,3.35507v56.92114A3.35511,3.35511,0,0,0,7.079,121.86834H120.921a3.35509,3.35509,0,0,0,3.35515-3.35511v-59.235A3.33349,3.33349,0,0,0,123.29344,56.90632Zm-95.0653,58.2518H10.4341V64.94733H28.25083ZM50.29128,103.097H38.90767V88.68448H50.29128Zm0-26.25936H38.90767V62.42512H50.29128Zm0-26.25936H38.90767V36.16577H50.29128ZM69.59048,103.097H58.20679V88.68448h11.3837Zm0-26.25936H58.20679V62.42512h11.3837Zm0-26.25936H58.20679V36.16577h11.3837Zm19.299,52.51871H77.5059V88.68448H88.88944Zm0-26.25936H77.5059V62.42512H88.88944Zm0-26.25936H77.5059V36.16577H88.88944Zm28.67647,52.20373H104.6696a3.33725,3.33725,0,0,0-.87121-.1188H99.74917V42.84237l17.81674,17.825Z"/><rect class="cls-2" x="15.56595" y="74.2865" width="7.53033" height="9.53399"/><rect class="cls-2" x="15.56595" y="96.28496" width="7.53033" height="9.53399"/><rect class="cls-2" x="104.89237" y="68.37863" width="7.53033" height="8.03459"/><rect class="cls-2" x="104.89237" y="86.91738" width="7.53033" height="8.03463"/></svg>