<?xml version="1.0" encoding="iso-8859-1"?>
<!-- Generator: Adobe Illustrator 23.1.1, SVG Export Plug-In . SVG Version: 6.00 Build 0)  -->
<svg version="1.1" id="Layer_1_1_" xmlns="http://www.w3.org/2000/svg" xmlns:xlink="http://www.w3.org/1999/xlink" x="0px" y="0px"
	 viewBox="0 0 64 64" style="enable-background:new 0 0 64 64;" xml:space="preserve">
<path d="M2,63h16c0.553,0,1-0.448,1-1V32c0-0.807-0.483-1.501-1.174-1.816l-0.857-3.427C16.858,26.312,16.459,26,16,26h-1.382
	l-3.724-7.447c-0.34-0.678-1.449-0.678-1.789,0L5.382,26H4c-0.459,0-0.858,0.312-0.97,0.757l-0.857,3.427
	C1.483,30.499,1,31.193,1,32v30C1,62.552,1.447,63,2,63z M12,61H8v-5h4V61z M17,61h-3v-6c0-0.552-0.447-1-1-1H7
	c-0.553,0-1,0.448-1,1v6H3V32h14V61z M10,21.236L12.382,26H7.618L10,21.236z M15.219,28l0.501,2H4.281l0.501-2H15.219z"/>
<path d="M61,45H47c-1.103,0-2,0.897-2,2v15c0,0.552,0.447,1,1,1h16c0.553,0,1-0.448,1-1V47C63,45.897,62.103,45,61,45z M56,61h-4v-2
	h4V61z M61,61h-3v-3c0-0.552-0.447-1-1-1h-6c-0.553,0-1,0.448-1,1v3h-3V47h14V61z"/>
<rect x="5" y="34" width="2" height="2"/>
<rect x="9" y="34" width="2" height="2"/>
<rect x="13" y="34" width="2" height="2"/>
<rect x="5" y="38" width="2" height="2"/>
<rect x="9" y="38" width="2" height="2"/>
<rect x="13" y="38" width="2" height="2"/>
<rect x="27" y="44" width="2" height="2"/>
<rect x="31" y="44" width="2" height="2"/>
<rect x="35" y="44" width="2" height="2"/>
<rect x="49" y="49" width="2" height="2"/>
<rect x="53" y="49" width="2" height="2"/>
<rect x="57" y="49" width="2" height="2"/>
<rect x="49" y="53" width="2" height="2"/>
<rect x="53" y="53" width="2" height="2"/>
<rect x="57" y="53" width="2" height="2"/>
<rect x="27" y="48" width="2" height="2"/>
<rect x="31" y="48" width="2" height="2"/>
<rect x="35" y="48" width="2" height="2"/>
<rect x="27" y="52" width="2" height="2"/>
<rect x="31" y="52" width="2" height="2"/>
<rect x="35" y="52" width="2" height="2"/>
<rect x="5" y="42" width="2" height="2"/>
<rect x="9" y="42" width="2" height="2"/>
<rect x="13" y="42" width="2" height="2"/>
<rect x="5" y="46" width="2" height="2"/>
<rect x="9" y="46" width="2" height="2"/>
<rect x="13" y="46" width="2" height="2"/>
<rect x="5" y="50" width="2" height="2"/>
<rect x="9" y="50" width="2" height="2"/>
<rect x="13" y="50" width="2" height="2"/>
<path d="M41,36H23c-0.553,0-1,0.448-1,1v4c0,0.552,0.447,1,1,1v20c0,0.552,0.447,1,1,1h16c0.553,0,1-0.448,1-1V42
	c0.553,0,1-0.448,1-1v-4C42,36.448,41.553,36,41,36z M24,38h16v2H24V38z M34,61h-4v-3h4V61z M39,61h-3v-4c0-0.552-0.447-1-1-1h-6
	c-0.553,0-1,0.448-1,1v4h-3V42h14V61z"/>
<path d="M33.125,5.946c-0.019,0-0.036,0-0.054,0C32.001,5.96,31,6.39,30.253,7.156c-0.748,0.767-1.151,1.778-1.138,2.848
	s0.443,2.071,1.21,2.818c0.754,0.735,1.744,1.138,2.794,1.138c0.019,0,0.036,0,0.054,0c1.07-0.014,2.071-0.443,2.818-1.21
	c0.748-0.767,1.151-1.778,1.138-2.848s-0.443-2.071-1.21-2.818C35.165,6.349,34.175,5.946,33.125,5.946z M34.56,11.354
	c-0.374,0.384-0.876,0.599-1.412,0.606c-0.495-0.012-1.042-0.195-1.426-0.569c-0.385-0.375-0.6-0.875-0.606-1.412
	s0.195-1.043,0.569-1.427c0.374-0.384,0.876-0.599,1.412-0.606c0.009,0,0.018,0,0.027,0c0.525,0,1.021,0.202,1.398,0.57
	c0.385,0.375,0.6,0.875,0.606,1.412S34.934,10.97,34.56,11.354z"/>
<path d="M41.866,7.232l-2-3.464c-0.133-0.229-0.352-0.397-0.607-0.466c-0.255-0.07-0.529-0.033-0.759,0.1l-1.424,0.861
	c-0.329-0.229-0.68-0.431-1.004-0.58V2c0-0.552-0.447-1-1-1h-4c-0.553,0-1,0.448-1,1l0.037,1.664
	c-0.362,0.169-0.713,0.371-1.009,0.58l-1.457-0.841c-0.23-0.133-0.505-0.169-0.759-0.1c-0.256,0.068-0.475,0.236-0.607,0.466
	l-2,3.464c-0.276,0.478-0.112,1.09,0.366,1.366l1.453,0.839C26.08,9.627,26.072,9.815,26.072,10s0.008,0.373,0.024,0.563
	l-1.453,0.839c-0.479,0.276-0.643,0.888-0.366,1.366l2,3.464c0.133,0.229,0.352,0.397,0.607,0.466
	c0.254,0.068,0.528,0.033,0.759-0.1l1.424-0.861c0.329,0.229,0.68,0.431,1.005,0.58V18c0,0.552,0.447,1,1,1h4c0.553,0,1-0.448,1-1
	l-0.038-1.664c0.362-0.169,0.713-0.371,1.009-0.58l1.457,0.841c0.229,0.133,0.504,0.168,0.759,0.1
	c0.256-0.068,0.475-0.236,0.607-0.466l2-3.464c0.276-0.478,0.112-1.09-0.366-1.366l-1.452-0.839
	c0.017-0.189,0.024-0.376,0.024-0.563s-0.008-0.374-0.024-0.563L41.5,8.598C41.979,8.322,42.143,7.71,41.866,7.232z M37.984,9.087
	c0.06,0.321,0.088,0.62,0.088,0.913s-0.028,0.592-0.088,0.913c-0.077,0.416,0.117,0.835,0.483,1.047l1.166,0.674l-1,1.732
	l-0.591-0.341c-0.668-0.385-1.496-0.357-2.109,0.071c-0.235,0.164-0.485,0.308-0.745,0.429c-0.678,0.317-1.116,1.021-1.116,1.793V17
	h-2v-0.683c0-0.771-0.438-1.475-1.119-1.794c-0.258-0.12-0.508-0.264-0.742-0.427c-0.614-0.429-1.441-0.456-2.11-0.071l-0.591,0.341
	l-1-1.732l1.166-0.674c0.366-0.211,0.561-0.631,0.483-1.047c-0.059-0.317-0.087-0.616-0.087-0.913s0.028-0.596,0.087-0.913
	c0.077-0.416-0.117-0.835-0.483-1.047L26.51,7.366l1-1.732l0.591,0.341c0.668,0.385,1.496,0.357,2.109-0.071
	c0.235-0.164,0.485-0.308,0.745-0.429c0.679-0.318,1.117-1.021,1.117-1.793V3h2v0.683c0,0.771,0.438,1.476,1.118,1.794
	c0.258,0.12,0.508,0.264,0.742,0.427c0.614,0.428,1.442,0.456,2.11,0.071l0.591-0.341l1,1.732L38.468,8.04
	C38.102,8.251,37.907,8.671,37.984,9.087z"/>
<path d="M50.307,39.685C50.499,39.889,50.764,40,51.036,40c0.087,0,0.174-0.011,0.26-0.034l6.964-1.871
	c0.322-0.087,0.581-0.329,0.688-0.646c0.107-0.317,0.049-0.666-0.155-0.931l-4.405-5.709c-0.226-0.292-0.596-0.438-0.957-0.375
	c-0.363,0.061-0.664,0.317-0.782,0.667l-0.884,2.618c-9.316-2.786-18.122-6.858-26.18-12.135c-5.68-3.721-11.01-8.051-15.842-12.872
	L8.33,10.128c4.928,4.916,10.364,9.333,16.158,13.128c8.2,5.37,17.16,9.516,26.636,12.357l-1.035,3.066
	C49.971,39.03,50.055,39.416,50.307,39.685z M53.944,33.511l2.348,3.042l-3.711,0.997L53.944,33.511z"/>
</svg>
